# xmcd CD database file
#
# Track frame offsets:
#	150
#	5279
#	16897
#	33297
#	52550
#	65944
#	78876
#	91935
#	112524
#	125948
#	149199
#	168142
#	171967
#	188023
#
# Disc length: 2628 seconds
#
# Revision: 0
# Processed by: cddbd v1.5.2PL0 Copyright (c) Steve Scherf et al.
# Submitted via: CDex 1.70beta2
#
DISCID=aa0a420e
DTITLE=Jenny Lewis With The Watson Twins - jenny Lewis
DYEAR=2006
DGENRE=Country
TTITLE0=Run Devil Run
TTITLE1=The Big Guns
TTITLE2=Rise Up With Fists!!!
TTITLE3=Happy
TTITLE4=The Charging Sky
TTITLE5=Melt Your Heart
TTITLE6=You Are What You Love
TTITLE7=Rabbit Fur Coat
TTITLE8=Handle With Care
TTITLE9=Born Secular
TTITLE10=It Wasn't Me
TTITLE11=Happy (Reprise)
TTITLE12=Paradise
TTITLE13=Fireplace
EXTD=YEAR: 2006
EXTT0=
EXTT1=
EXTT2=
EXTT3=
EXTT4=
EXTT5=
EXTT6=
EXTT7=
EXTT8=
EXTT9=
EXTT10=
EXTT11=
EXTT12=
EXTT13=
PLAYORDER=
